<mxfile host="app.diagrams.net" modified="2024-05-07T07:58:43.456Z" agent="Mozilla/5.0 (Macintosh; Intel Mac OS X 10_15_7) AppleWebKit/537.36 (KHTML, like Gecko) Chrome/122.0.0.0 Safari/537.36" version="24.3.1" etag="NKZkL3WPromBwCy3AZT0" type="github">
  <diagram name="第 1 页" id="AitZVgXli9ziph_9OjO_">
    <mxGraphModel>
      <root>
        <mxCell id="0" />
        <mxCell id="1" parent="0" />
      </root>
    </mxGraphModel>
  </diagram>
</mxfile>
